<svg width="17" height="16" viewBox="0 0 462 462" fill="none" xmlns="http://www.w3.org/2000/svg">
<!--
    <path d="M2.10241 4.70721L8.50001 7.90561L14.8976 4.70721C14.8739 4.29957 14.6953 3.9164 14.3983 3.63619C14.1012 3.35598 13.7083 3.19994 13.3 3.20001H3.70001C3.29167 3.19994 2.89876 3.35598 2.60175 3.63619C2.30473 3.9164 2.12609 4.29957 2.10241 4.70721Z"
          fill="#1E1F26"/>
    <path d="M14.9 6.49441L8.50001 9.69441L2.10001 6.49441V11.2C2.10001 11.6244 2.26858 12.0313 2.56864 12.3314C2.86869 12.6314 3.27566 12.8 3.70001 12.8H13.3C13.7244 12.8 14.1313 12.6314 14.4314 12.3314C14.7314 12.0313 14.9 11.6244 14.9 11.2V6.49441Z"
          fill="#1E1F26"/>
-->
        <path d="m397.35 132.52-109.59-109.59a9.61 9.61 0 0 0 -7.07-2.93h-179a40 40 0 0 0 -40 40v342a40 40 0 0 0 40 40h258.59a40 40 0 0 0 40-40v-262.41a10.07 10.07 0 0 0 -2.93-7.07zm-31.21-2.93h-60.45a15 15 0 0 1 -15-15v-60.45zm-5.86 292.41h-258.56a20 20 0 0 1 -20-20v-342a20 20 0 0 1 20-20h169v74.59a35 35 0 0 0 35 35h74.59v252.41a20 20 0 0 1 -20.03 20z"
              fill="#1E1F26"/>
        <path d="m190.83 174a40.5 40.5 0 1 0 -40.5-40.5 40.55 40.55 0 0 0 40.5 40.5zm0-61a20.5 20.5 0 1 1 -20.5 20.5 20.53 20.53 0 0 1 20.5-20.5z"
              fill="#1E1F26"/>
        <path d="m132.22 251.5a10 10 0 0 0 10-10v-6.1a37.11 37.11 0 0 1 37.06-37.06h23.1a37.11 37.11 0 0 1 37.06 37.06v6.1a10 10 0 0 0 20 0v-6.1a57.13 57.13 0 0 0 -57.06-57.06h-23.1a57.13 57.13 0 0 0 -57.06 57.06v6.1a10 10 0 0 0 10 10z"
              fill="#1E1F26"/>
        <path d="m126.65 324.67h121.35a10 10 0 0 0 0-20h-121.35a10 10 0 1 0 0 20z"
              fill="#1E1F26"/>
        <path d="m316.65 357.33h-190a10 10 0 1 0 0 20h190a10 10 0 0 0 0-20z"
              fill="#1E1F26"/>
</svg>
